<svg width="61" height="260" viewBox="0 0 61 260" fill="none" xmlns="http://www.w3.org/2000/svg">
<path fill-rule="evenodd" clip-rule="evenodd" d="M5.5 10C8.26142 10 10.5 7.76142 10.5 5C10.5 2.23858 8.26142 0 5.5 0C2.73858 0 0.5 2.23858 0.5 5C0.5 7.76142 2.73858 10 5.5 10ZM5.5 60C8.26142 60 10.5 57.7614 10.5 55C10.5 52.2386 8.26142 50 5.5 50C2.73858 50 0.5 52.2386 0.5 55C0.5 57.7614 2.73858 60 5.5 60ZM10.5 105C10.5 107.761 8.26142 110 5.5 110C2.73858 110 0.5 107.761 0.5 105C0.5 102.239 2.73858 100 5.5 100C8.26142 100 10.5 102.239 10.5 105ZM5.5 160C8.26142 160 10.5 157.761 10.5 155C10.5 152.239 8.26142 150 5.5 150C2.73858 150 0.5 152.239 0.5 155C0.5 157.761 2.73858 160 5.5 160ZM10.5 205C10.5 207.761 8.26142 210 5.5 210C2.73858 210 0.5 207.761 0.5 205C0.5 202.239 2.73858 200 5.5 200C8.26142 200 10.5 202.239 10.5 205ZM5.5 260C8.26142 260 10.5 257.761 10.5 255C10.5 252.239 8.26142 250 5.5 250C2.73858 250 0.5 252.239 0.5 255C0.5 257.761 2.73858 260 5.5 260ZM60.5 5C60.5 7.76142 58.2614 10 55.5 10C52.7386 10 50.5 7.76142 50.5 5C50.5 2.23858 52.7386 0 55.5 0C58.2614 0 60.5 2.23858 60.5 5ZM55.5 60C58.2614 60 60.5 57.7614 60.5 55C60.5 52.2386 58.2614 50 55.5 50C52.7386 50 50.5 52.2386 50.5 55C50.5 57.7614 52.7386 60 55.5 60ZM60.5 105C60.5 107.761 58.2614 110 55.5 110C52.7386 110 50.5 107.761 50.5 105C50.5 102.239 52.7386 100 55.5 100C58.2614 100 60.5 102.239 60.5 105ZM55.5 160C58.2614 160 60.5 157.761 60.5 155C60.5 152.239 58.2614 150 55.5 150C52.7386 150 50.5 152.239 50.5 155C50.5 157.761 52.7386 160 55.5 160ZM60.5 205C60.5 207.761 58.2614 210 55.5 210C52.7386 210 50.5 207.761 50.5 205C50.5 202.239 52.7386 200 55.5 200C58.2614 200 60.5 202.239 60.5 205ZM55.5 260C58.2614 260 60.5 257.761 60.5 255C60.5 252.239 58.2614 250 55.5 250C52.7386 250 50.5 252.239 50.5 255C50.5 257.761 52.7386 260 55.5 260Z" fill="#E5D4FB"/>
</svg>
